<mxfile host="app.diagrams.net" modified="2023-05-24T14:35:20.393Z" agent="Mozilla/5.0 (Windows NT 10.0; Win64; x64) AppleWebKit/537.36 (KHTML, like Gecko) Chrome/113.0.0.0 Safari/537.36" etag="zh7UlHAT3p-eVkeSBMzI" version="21.2.4" type="device">
  <diagram name="Page-1" id="HYTHdOVP3RB4q8BTICH5">
    <mxGraphModel dx="1434" dy="707" grid="1" gridSize="10" guides="1" tooltips="1" connect="1" arrows="1" fold="1" page="1" pageScale="1" pageWidth="827" pageHeight="1169" math="0" shadow="0">
      <root>
        <mxCell id="0" />
        <mxCell id="1" parent="0" />
        <mxCell id="b7E1i_k7DVVPzgVZERqm-27" style="edgeStyle=orthogonalEdgeStyle;rounded=0;orthogonalLoop=1;jettySize=auto;html=1;exitX=0.5;exitY=1;exitDx=0;exitDy=0;" edge="1" parent="1" source="b7E1i_k7DVVPzgVZERqm-2" target="b7E1i_k7DVVPzgVZERqm-26">
          <mxGeometry relative="1" as="geometry" />
        </mxCell>
        <mxCell id="b7E1i_k7DVVPzgVZERqm-2" value="&lt;br&gt;&lt;br&gt;&lt;br&gt;User" style="shape=actor;whiteSpace=wrap;html=1;fillColor=#dae8fc;strokeColor=#6c8ebf;" vertex="1" parent="1">
          <mxGeometry x="180" y="320" width="56" height="80" as="geometry" />
        </mxCell>
        <mxCell id="b7E1i_k7DVVPzgVZERqm-12" style="edgeStyle=orthogonalEdgeStyle;rounded=0;orthogonalLoop=1;jettySize=auto;html=1;exitX=1;exitY=0.5;exitDx=0;exitDy=0;entryX=0;entryY=0.5;entryDx=0;entryDy=0;" edge="1" parent="1" source="b7E1i_k7DVVPzgVZERqm-5" target="b7E1i_k7DVVPzgVZERqm-10">
          <mxGeometry relative="1" as="geometry" />
        </mxCell>
        <mxCell id="b7E1i_k7DVVPzgVZERqm-5" value="Generate OTP secret" style="rounded=1;whiteSpace=wrap;html=1;" vertex="1" parent="1">
          <mxGeometry x="140" y="210" width="120" height="60" as="geometry" />
        </mxCell>
        <mxCell id="b7E1i_k7DVVPzgVZERqm-15" style="edgeStyle=orthogonalEdgeStyle;rounded=0;orthogonalLoop=1;jettySize=auto;html=1;exitX=0.5;exitY=1;exitDx=0;exitDy=0;entryX=0.5;entryY=0;entryDx=0;entryDy=0;" edge="1" parent="1" source="b7E1i_k7DVVPzgVZERqm-8" target="b7E1i_k7DVVPzgVZERqm-14">
          <mxGeometry relative="1" as="geometry" />
        </mxCell>
        <mxCell id="b7E1i_k7DVVPzgVZERqm-8" value="Generate tokens&lt;br&gt;(expected lifetime)" style="rounded=1;whiteSpace=wrap;html=1;" vertex="1" parent="1">
          <mxGeometry x="530" y="210" width="120" height="60" as="geometry" />
        </mxCell>
        <mxCell id="b7E1i_k7DVVPzgVZERqm-13" style="edgeStyle=orthogonalEdgeStyle;rounded=0;orthogonalLoop=1;jettySize=auto;html=1;exitX=1;exitY=0.5;exitDx=0;exitDy=0;" edge="1" parent="1" source="b7E1i_k7DVVPzgVZERqm-10" target="b7E1i_k7DVVPzgVZERqm-8">
          <mxGeometry relative="1" as="geometry" />
        </mxCell>
        <mxCell id="b7E1i_k7DVVPzgVZERqm-19" style="edgeStyle=orthogonalEdgeStyle;rounded=0;orthogonalLoop=1;jettySize=auto;html=1;exitX=0.5;exitY=1;exitDx=0;exitDy=0;" edge="1" parent="1" source="b7E1i_k7DVVPzgVZERqm-10" target="b7E1i_k7DVVPzgVZERqm-20">
          <mxGeometry relative="1" as="geometry">
            <mxPoint x="400" y="330" as="targetPoint" />
          </mxGeometry>
        </mxCell>
        <mxCell id="b7E1i_k7DVVPzgVZERqm-10" value="Create HOTP/TOTP&lt;br&gt;from secret" style="rounded=1;whiteSpace=wrap;html=1;" vertex="1" parent="1">
          <mxGeometry x="340" y="210" width="120" height="60" as="geometry" />
        </mxCell>
        <mxCell id="b7E1i_k7DVVPzgVZERqm-18" style="edgeStyle=orthogonalEdgeStyle;rounded=0;orthogonalLoop=1;jettySize=auto;html=1;exitX=0.5;exitY=1;exitDx=0;exitDy=0;" edge="1" parent="1" source="b7E1i_k7DVVPzgVZERqm-14" target="b7E1i_k7DVVPzgVZERqm-17">
          <mxGeometry relative="1" as="geometry" />
        </mxCell>
        <mxCell id="b7E1i_k7DVVPzgVZERqm-14" value="Hash tokens" style="rounded=1;whiteSpace=wrap;html=1;" vertex="1" parent="1">
          <mxGeometry x="530" y="330" width="120" height="60" as="geometry" />
        </mxCell>
        <mxCell id="b7E1i_k7DVVPzgVZERqm-23" style="edgeStyle=orthogonalEdgeStyle;rounded=0;orthogonalLoop=1;jettySize=auto;html=1;exitX=0;exitY=0.5;exitDx=0;exitDy=0;entryX=1;entryY=0.5;entryDx=0;entryDy=0;" edge="1" parent="1" source="b7E1i_k7DVVPzgVZERqm-17" target="b7E1i_k7DVVPzgVZERqm-22">
          <mxGeometry relative="1" as="geometry" />
        </mxCell>
        <mxCell id="b7E1i_k7DVVPzgVZERqm-17" value="Build merkle tree" style="rounded=1;whiteSpace=wrap;html=1;" vertex="1" parent="1">
          <mxGeometry x="530" y="450" width="120" height="60" as="geometry" />
        </mxCell>
        <mxCell id="b7E1i_k7DVVPzgVZERqm-24" style="edgeStyle=orthogonalEdgeStyle;rounded=0;orthogonalLoop=1;jettySize=auto;html=1;exitX=0;exitY=0.5;exitDx=0;exitDy=0;" edge="1" parent="1" source="b7E1i_k7DVVPzgVZERqm-20" target="b7E1i_k7DVVPzgVZERqm-2">
          <mxGeometry relative="1" as="geometry" />
        </mxCell>
        <mxCell id="b7E1i_k7DVVPzgVZERqm-20" value="Generate google auth QRcode" style="rounded=1;whiteSpace=wrap;html=1;" vertex="1" parent="1">
          <mxGeometry x="340" y="330" width="120" height="60" as="geometry" />
        </mxCell>
        <mxCell id="b7E1i_k7DVVPzgVZERqm-22" value="save tree" style="rounded=1;whiteSpace=wrap;html=1;" vertex="1" parent="1">
          <mxGeometry x="340" y="450" width="120" height="60" as="geometry" />
        </mxCell>
        <mxCell id="b7E1i_k7DVVPzgVZERqm-25" value="scan" style="text;html=1;align=center;verticalAlign=middle;resizable=0;points=[];autosize=1;strokeColor=none;fillColor=none;" vertex="1" parent="1">
          <mxGeometry x="270" y="330" width="50" height="30" as="geometry" />
        </mxCell>
        <mxCell id="b7E1i_k7DVVPzgVZERqm-26" value="User can now generate valid tokens" style="rounded=1;whiteSpace=wrap;html=1;" vertex="1" parent="1">
          <mxGeometry x="148" y="450" width="120" height="60" as="geometry" />
        </mxCell>
        <mxCell id="b7E1i_k7DVVPzgVZERqm-38" style="edgeStyle=orthogonalEdgeStyle;rounded=0;orthogonalLoop=1;jettySize=auto;html=1;exitX=0.5;exitY=1;exitDx=0;exitDy=0;" edge="1" parent="1" source="b7E1i_k7DVVPzgVZERqm-28" target="b7E1i_k7DVVPzgVZERqm-37">
          <mxGeometry relative="1" as="geometry" />
        </mxCell>
        <mxCell id="b7E1i_k7DVVPzgVZERqm-39" style="edgeStyle=orthogonalEdgeStyle;rounded=0;orthogonalLoop=1;jettySize=auto;html=1;exitX=1;exitY=0.75;exitDx=0;exitDy=0;" edge="1" parent="1" source="b7E1i_k7DVVPzgVZERqm-28" target="b7E1i_k7DVVPzgVZERqm-30">
          <mxGeometry relative="1" as="geometry" />
        </mxCell>
        <mxCell id="b7E1i_k7DVVPzgVZERqm-28" value="&lt;br&gt;&lt;br&gt;&lt;br&gt;User" style="shape=actor;whiteSpace=wrap;html=1;fillColor=#dae8fc;strokeColor=#6c8ebf;" vertex="1" parent="1">
          <mxGeometry x="340" y="570" width="56" height="80" as="geometry" />
        </mxCell>
        <mxCell id="b7E1i_k7DVVPzgVZERqm-32" style="edgeStyle=orthogonalEdgeStyle;rounded=0;orthogonalLoop=1;jettySize=auto;html=1;exitX=1;exitY=0.5;exitDx=0;exitDy=0;" edge="1" parent="1" source="b7E1i_k7DVVPzgVZERqm-30" target="b7E1i_k7DVVPzgVZERqm-31">
          <mxGeometry relative="1" as="geometry" />
        </mxCell>
        <mxCell id="b7E1i_k7DVVPzgVZERqm-30" value="Enters token from authenticator" style="rounded=1;whiteSpace=wrap;html=1;" vertex="1" parent="1">
          <mxGeometry x="488" y="690" width="120" height="60" as="geometry" />
        </mxCell>
        <mxCell id="b7E1i_k7DVVPzgVZERqm-34" style="edgeStyle=orthogonalEdgeStyle;rounded=0;orthogonalLoop=1;jettySize=auto;html=1;exitX=0.5;exitY=1;exitDx=0;exitDy=0;" edge="1" parent="1" source="b7E1i_k7DVVPzgVZERqm-31" target="b7E1i_k7DVVPzgVZERqm-33">
          <mxGeometry relative="1" as="geometry" />
        </mxCell>
        <mxCell id="b7E1i_k7DVVPzgVZERqm-31" value="hash token" style="rounded=1;whiteSpace=wrap;html=1;" vertex="1" parent="1">
          <mxGeometry x="488" y="790" width="120" height="60" as="geometry" />
        </mxCell>
        <mxCell id="b7E1i_k7DVVPzgVZERqm-36" style="edgeStyle=orthogonalEdgeStyle;rounded=0;orthogonalLoop=1;jettySize=auto;html=1;exitX=0.5;exitY=1;exitDx=0;exitDy=0;" edge="1" parent="1" source="b7E1i_k7DVVPzgVZERqm-33">
          <mxGeometry relative="1" as="geometry">
            <mxPoint x="348" y="1010" as="targetPoint" />
          </mxGeometry>
        </mxCell>
        <mxCell id="b7E1i_k7DVVPzgVZERqm-33" value="generate merkle&lt;br&gt;proof" style="rounded=1;whiteSpace=wrap;html=1;" vertex="1" parent="1">
          <mxGeometry x="488" y="910" width="120" height="60" as="geometry" />
        </mxCell>
        <mxCell id="b7E1i_k7DVVPzgVZERqm-35" value="send token + proof&lt;br&gt;to smart contract" style="rounded=1;whiteSpace=wrap;html=1;" vertex="1" parent="1">
          <mxGeometry x="358" y="1050" width="120" height="60" as="geometry" />
        </mxCell>
        <mxCell id="b7E1i_k7DVVPzgVZERqm-37" value="initiate transaction" style="rounded=1;whiteSpace=wrap;html=1;" vertex="1" parent="1">
          <mxGeometry x="308" y="690" width="120" height="60" as="geometry" />
        </mxCell>
      </root>
    </mxGraphModel>
  </diagram>
</mxfile>
